<svg width="42" height="42" viewBox="0 0 42 42" fill="none" xmlns="http://www.w3.org/2000/svg">
<path d="M41.7299 22.8703L38.6435 17.9728C38.399 17.5845 38.3166 17.1157 38.4135 16.6674L39.6387 11.0097C39.8298 10.1279 39.3197 9.24539 38.4608 8.96978L32.9485 7.20202C32.5116 7.06181 32.147 6.75594 31.9331 6.35015L29.2351 1.22871C28.8148 0.430301 27.8569 0.081881 27.0216 0.422821L21.6623 2.61216C21.2376 2.78524 20.7617 2.78524 20.3371 2.61216L14.9786 0.423232C14.1433 0.0822927 13.1854 0.430713 12.7648 1.22912L10.0667 6.35008C9.85284 6.75587 9.48822 7.06174 9.05134 7.20195L3.53907 8.96971C2.67972 9.24532 2.1701 10.1279 2.36116 11.0096L3.58595 16.6673C3.68326 17.1156 3.60043 17.5846 3.35591 17.9728L0.269952 22.8703C-0.211193 23.6337 -0.0337229 24.6372 0.679244 25.1903L5.2542 28.7367C5.61703 29.018 5.85496 29.43 5.91721 29.8849L6.70121 35.6202C6.82302 36.5142 7.60434 37.1694 8.50534 37.1343L14.2898 36.9104C14.7481 36.8924 15.1951 37.0554 15.5356 37.3634L19.8222 41.253C20.4905 41.8591 21.5102 41.8591 22.1781 41.253L26.4651 37.3634C26.8048 37.055 27.2521 36.8924 27.711 36.9104L33.4949 37.1343C34.3968 37.1694 35.1773 36.5138 35.2995 35.6202L36.0835 29.8849C36.1457 29.43 36.3837 29.0181 36.7461 28.7367L41.321 25.1903C42.0339 24.6372 42.211 23.6337 41.7299 22.8703ZM16.1434 27.9944L11.0351 24.4265L13.1347 29.2924L11.7354 29.8963L8.51543 22.4352L9.98083 21.8024L15.1855 25.4671L13.0347 20.4847L14.434 19.8803L17.6548 27.3418L16.1434 27.9944ZM19.2477 26.6543L16.0277 19.1932L21.5601 16.8049L22.1044 18.0674L18.0781 19.8049L18.792 21.4588L22.5383 19.8418L23.0808 21.099L19.3345 22.7156L20.2109 24.7463L24.3792 22.9474L24.9217 24.2047L19.2477 26.6543ZM31.86 21.2113L27.9664 16.2739L28.8923 22.4913L27.2587 23.1964L22.2577 16.5044L23.7994 15.8383L27.1364 20.4781L26.2884 14.7647L28.0807 13.9913L31.6377 18.6386L30.5334 12.9326L32.0501 12.2779L33.458 20.5216L31.86 21.2113Z" fill="white"/>
</svg>
